<svg width="142" height="35" viewBox="0 0 142 35" fill="none" xmlns="http://www.w3.org/2000/svg">
<path d="M17.4586 0L19.9238 9.10444L26.9198 2.77806L24.0714 11.77L33.3772 10.2302L26.1195 16.2547L34.7805 19.9905L25.4179 21.1349L30.6842 28.9601L22.1892 24.861L22.3889 34.2911L17.4586 26.25L12.5283 34.2911L12.728 24.861L4.23298 28.9601L9.49931 21.1349L0.136719 19.9905L8.79766 16.2547L1.54003 10.2302L10.8458 11.77L7.99738 2.77806L14.9934 9.10444L17.4586 0Z" fill="#598D66"/>
<path d="M44.4386 25V10.8H47.1986V25H44.4386Z" fill="#598D66"/>
<path d="M59.6413 25H56.9613V19.12C56.9613 18.28 56.8146 17.6667 56.5213 17.28C56.2279 16.8933 55.8213 16.7 55.3013 16.7C54.9413 16.7 54.5746 16.7933 54.2012 16.98C53.8412 17.1667 53.5146 17.4267 53.2212 17.76C52.9279 18.08 52.7146 18.4533 52.5812 18.88V25H49.9012V14.52H52.3213V16.46C52.7079 15.8067 53.2679 15.2933 54.0013 14.92C54.7346 14.5333 55.5613 14.34 56.4813 14.34C57.1346 14.34 57.6679 14.46 58.0812 14.7C58.4946 14.9267 58.8146 15.24 59.0412 15.64C59.2679 16.0267 59.4213 16.4667 59.5013 16.96C59.5946 17.4533 59.6413 17.9533 59.6413 18.46V25Z" fill="#598D66"/>
<path d="M69.1316 25L66.0716 20.48L64.6516 21.88V25H61.9716V10.4H64.6516V19.24L68.8716 14.54H71.7116L67.8116 18.98L71.9916 25H69.1316Z" fill="#598D66"/>
<path d="M73.0639 25V22.12H75.2639V25H73.0639Z" fill="#598D66"/>
<path d="M94.6208 10.8V25H91.8808V18.94H85.4408V25H82.6808V10.8H85.4408V16.54H91.8808V10.8H94.6208Z" fill="#598D66"/>
<path d="M101.987 25.2C100.841 25.2 99.854 24.9533 99.0273 24.46C98.214 23.9533 97.5873 23.2867 97.1473 22.46C96.7073 21.6333 96.4873 20.74 96.4873 19.78C96.4873 18.8067 96.7073 17.9067 97.1473 17.08C97.6007 16.2533 98.234 15.5933 99.0473 15.1C99.874 14.5933 100.854 14.34 101.987 14.34C103.121 14.34 104.094 14.5933 104.907 15.1C105.734 15.5933 106.367 16.2533 106.807 17.08C107.247 17.9067 107.467 18.8067 107.467 19.78C107.467 20.74 107.247 21.6333 106.807 22.46C106.367 23.2867 105.734 23.9533 104.907 24.46C104.094 24.9533 103.121 25.2 101.987 25.2ZM99.2473 19.78C99.2473 20.3933 99.3673 20.94 99.6073 21.42C99.8473 21.8867 100.174 22.2533 100.587 22.52C101.001 22.7867 101.467 22.92 101.987 22.92C102.494 22.92 102.954 22.7867 103.367 22.52C103.781 22.24 104.107 21.8667 104.347 21.4C104.601 20.92 104.727 20.3733 104.727 19.76C104.727 19.16 104.601 18.6267 104.347 18.16C104.107 17.68 103.781 17.3067 103.367 17.04C102.954 16.76 102.494 16.62 101.987 16.62C101.467 16.62 101.001 16.76 100.587 17.04C100.174 17.3067 99.8473 17.68 99.6073 18.16C99.3673 18.6267 99.2473 19.1667 99.2473 19.78Z" fill="#598D66"/>
<path d="M109.176 21.08V14.52H111.856V20.5C111.856 22.1133 112.436 22.92 113.596 22.92C114.116 22.92 114.616 22.7667 115.096 22.46C115.59 22.14 115.99 21.66 116.296 21.02V14.52H118.976V22C118.976 22.2933 119.023 22.5 119.116 22.62C119.21 22.7267 119.376 22.7933 119.616 22.82V25C119.35 25.0533 119.123 25.0867 118.936 25.1C118.763 25.1133 118.603 25.12 118.456 25.12C117.976 25.12 117.583 25.0133 117.276 24.8C116.983 24.5733 116.81 24.2667 116.756 23.88L116.696 23.04C116.23 23.76 115.63 24.3 114.896 24.66C114.163 25.02 113.356 25.2 112.476 25.2C111.396 25.2 110.576 24.8533 110.016 24.16C109.456 23.4533 109.176 22.4267 109.176 21.08Z" fill="#598D66"/>
<path d="M125.5 25.2C124.606 25.2 123.753 25.0533 122.94 24.76C122.126 24.4667 121.426 24.0333 120.84 23.46L121.8 21.72C122.426 22.2267 123.04 22.6 123.64 22.84C124.24 23.08 124.826 23.2 125.4 23.2C125.92 23.2 126.333 23.1067 126.64 22.92C126.96 22.7333 127.12 22.4533 127.12 22.08C127.12 21.6933 126.926 21.4333 126.54 21.3C126.153 21.1533 125.613 20.9733 124.92 20.76C124.146 20.52 123.5 20.2733 122.98 20.02C122.46 19.7667 122.066 19.46 121.8 19.1C121.546 18.74 121.42 18.2733 121.42 17.7C121.42 16.6733 121.806 15.8533 122.58 15.24C123.353 14.6267 124.38 14.32 125.66 14.32C126.406 14.32 127.113 14.44 127.78 14.68C128.446 14.9067 129.053 15.28 129.6 15.8L128.52 17.5C127.493 16.7 126.5 16.3 125.54 16.3C125.113 16.3 124.733 16.38 124.4 16.54C124.08 16.7 123.92 16.98 123.92 17.38C123.92 17.7533 124.073 18.02 124.38 18.18C124.7 18.34 125.18 18.5133 125.82 18.7C126.646 18.9533 127.346 19.2 127.92 19.44C128.506 19.68 128.946 19.9867 129.24 20.36C129.546 20.7333 129.7 21.24 129.7 21.88C129.7 22.92 129.32 23.7333 128.56 24.32C127.8 24.9067 126.78 25.2 125.5 25.2Z" fill="#598D66"/>
<path d="M136.382 25.2C135.249 25.2 134.269 24.9533 133.442 24.46C132.629 23.9667 131.996 23.3133 131.542 22.5C131.089 21.6733 130.862 20.78 130.862 19.82C130.862 18.8333 131.082 17.9267 131.522 17.1C131.976 16.26 132.616 15.5933 133.442 15.1C134.269 14.5933 135.256 14.34 136.402 14.34C137.549 14.34 138.529 14.5933 139.342 15.1C140.156 15.5933 140.776 16.2533 141.202 17.08C141.642 17.8933 141.862 18.7733 141.862 19.72C141.862 20.0667 141.842 20.3667 141.802 20.62H133.702C133.769 21.4333 134.069 22.0733 134.602 22.54C135.149 23.0067 135.776 23.24 136.482 23.24C137.016 23.24 137.516 23.1133 137.982 22.86C138.462 22.5933 138.789 22.2467 138.962 21.82L141.262 22.46C140.876 23.26 140.256 23.92 139.402 24.44C138.549 24.9467 137.542 25.2 136.382 25.2ZM133.642 18.92H139.122C139.042 18.1333 138.742 17.5 138.222 17.02C137.716 16.5267 137.096 16.28 136.362 16.28C135.642 16.28 135.022 16.5267 134.502 17.02C133.996 17.5 133.709 18.1333 133.642 18.92Z" fill="#598D66"/>
</svg>
